<?xml version="1.0" encoding="UTF-8" standalone="no"?>
<svg
   width="1015.7248"
   height="931.69397"
   version="1.1"
   viewBox="0 0 268.74385 246.51225"
   id="svg18"
   sodipodi:docname="grafik_1.svg"
   inkscape:version="1.1 (c68e22c387, 2021-05-23)"
   xmlns:inkscape="http://www.inkscape.org/namespaces/inkscape"
   xmlns:sodipodi="http://sodipodi.sourceforge.net/DTD/sodipodi-0.dtd"
   xmlns="http://www.w3.org/2000/svg"
   xmlns:svg="http://www.w3.org/2000/svg"
   xmlns:rdf="http://www.w3.org/1999/02/22-rdf-syntax-ns#"
   xmlns:cc="http://creativecommons.org/ns#"
   xmlns:dc="http://purl.org/dc/elements/1.1/">
  <metadata
     id="metadata24">
    <rdf:RDF>
      <cc:Work
         rdf:about="">
        <dc:format>image/svg+xml</dc:format>
        <dc:type
           rdf:resource="http://purl.org/dc/dcmitype/StillImage" />
      </cc:Work>
    </rdf:RDF>
  </metadata>
  <defs
     id="defs22">
    <filter
       inkscape:collect="always"
       style="color-interpolation-filters:sRGB"
       id="filter55830"
       x="-0.13538853"
       y="-0.13538853"
       width="1.2707771"
       height="1.2707771">
      <feGaussianBlur
         inkscape:collect="always"
         stdDeviation="6.3801705"
         id="feGaussianBlur55832" />
    </filter>
    <filter
       inkscape:collect="always"
       style="color-interpolation-filters:sRGB"
       id="filter55830-1"
       x="-0.19792868"
       y="-0.19792868"
       width="1.3958574"
       height="1.3958574">
      <feGaussianBlur
         inkscape:collect="always"
         stdDeviation="6.5268363"
         id="feGaussianBlur55832-6" />
    </filter>
  </defs>
  <sodipodi:namedview
     pagecolor="#ffffff"
     bordercolor="#666666"
     borderopacity="1"
     objecttolerance="10"
     gridtolerance="10"
     guidetolerance="10"
     inkscape:pageopacity="0"
     inkscape:pageshadow="2"
     inkscape:window-width="640"
     inkscape:window-height="480"
     id="namedview20"
     showgrid="false"
     inkscape:zoom="0.77416665"
     inkscape:cx="674.91928"
     inkscape:cy="417.86868"
     inkscape:current-layer="g33578"
     inkscape:pagecheckerboard="0"
     fit-margin-top="0"
     fit-margin-left="0"
     fit-margin-right="0"
     fit-margin-bottom="0" />
  <g
     id="g33578"
     transform="translate(58.224769,116.0903)">
    <path
       id="path13468"
       style="fill:none;fill-rule:evenodd;stroke:#00aad4;stroke-width:3.11035;stroke-linecap:round;stroke-linejoin:miter;stroke-miterlimit:4;stroke-dasharray:3.11035, 6.2207;stroke-dashoffset:0;stroke-opacity:1"
       d="M 74.893566,26.03117 V -51.874682 M -16.740145,85.196351 74.893566,26.03117 164.0382,86.79261"
       sodipodi:nodetypes="ccccc" />
    <circle
       style="color:#000000;overflow:visible;opacity:0.52975048;fill:#ffffff;fill-opacity:1;stroke:#05aad4;stroke-width:13.44255389;stroke-linecap:round;stroke-linejoin:round;stroke-miterlimit:4;stroke-dasharray:none;stroke-dashoffset:0;stroke-opacity:1;paint-order:markers fill stroke;filter:url(#filter55830-1);stop-color:#000000"
       id="path55361-3"
       cx="74.324905"
       cy="26.559462"
       r="56.549873"
       transform="matrix(1.4878219,0,0,1.4878219,-36.257317,-12.956288)" />
    <circle
       style="color:#000000;overflow:visible;opacity:1;mix-blend-mode:normal;fill:#ffffff;fill-opacity:1;stroke:none;stroke-width:2.00001;stroke-linecap:round;stroke-linejoin:round;stroke-miterlimit:4;stroke-dasharray:none;stroke-dashoffset:0;stroke-opacity:1;paint-order:markers fill stroke;filter:url(#filter55830);stop-color:#000000"
       id="path55361"
       cx="73.965744"
       cy="34.709354"
       r="56.549873"
       transform="matrix(0.6489023,0,0,0.6489023,28.430714,3.9744452)" />
    <circle
       style="color:#000000;overflow:visible;fill:#00aad4;fill-opacity:1;stroke:none;stroke-width:0;stroke-linecap:round;stroke-linejoin:round;paint-order:markers stroke fill;stop-color:#000000"
       id="path13136-1-0-3"
       cx="74.432663"
       cy="-70.083176"
       r="23.297611" />
    <circle
       style="color:#000000;overflow:visible;fill:#00aad4;fill-opacity:1;stroke:none;stroke-width:0;stroke-linecap:round;stroke-linejoin:round;paint-order:markers stroke fill;stop-color:#000000"
       id="path13136-1-0"
       cx="162.39912"
       cy="84.0998"
       r="23.297611" />
    <circle
       style="color:#000000;overflow:visible;fill:#00aad4;fill-opacity:1;stroke:none;stroke-width:0;stroke-linecap:round;stroke-linejoin:round;paint-order:markers stroke fill;stop-color:#000000"
       id="path13136-1"
       cx="-13.05047"
       cy="84.099808"
       r="23.297611" />
    <g
       aria-label="LVS"
       id="text2866-8-4"
       style="font-size:16.3549px;line-height:9.58289px;font-family:'DIN 1451 Engschrift';-inkscape-font-specification:'DIN 1451 Engschrift, Normal';letter-spacing:0px;word-spacing:0px;stroke-width:0.383316px">
      <path
         d="m 157.37873,57.061249 h -4.64479 V 46.15253 h 1.55371 v 9.338648 h 3.09108 z"
         id="path871" />
      <path
         d="M 160.0282,57.061249 157.80393,46.15253 h 1.63549 l 1.25933,7.572319 1.29203,-7.572319 h 1.65185 l -2.27333,10.908719 z"
         id="path873" />
      <path
         d="m 165.73605,54.346335 q 0,0.310743 0.0163,0.474292 0.0327,0.147195 0.24533,0.474293 0.22897,0.310743 0.81774,0.310743 0.3271,0 0.60513,-0.13084 0.27804,-0.147194 0.40888,-0.359807 0.13083,-0.228969 0.13083,-0.457938 0.0164,-0.245323 0.0164,-0.327098 V 53.5613 q 0,-0.327098 -0.0327,-0.490647 -0.0164,-0.163549 -0.19626,-0.343453 -0.16355,-0.196259 -0.49065,-0.343453 -0.31074,-0.163549 -1.11213,-0.457937 -0.78503,-0.294388 -1.32475,-0.915874 -0.53971,-0.637841 -0.53971,-1.73362 v -0.490647 q 0,-1.112133 0.73597,-1.913523 0.75233,-0.817745 1.86446,-0.817745 1.12849,0 1.88081,0.80139 0.76869,0.785035 0.76869,1.929878 v 0.490647 h -1.55372 v -0.490647 q 0,-0.228968 -0.0327,-0.392517 -0.0327,-0.163549 -0.26168,-0.474293 -0.22897,-0.310743 -0.76868,-0.310743 -0.47429,0 -0.78503,0.343453 -0.29439,0.327098 -0.29439,0.8341 v 0.490647 q 0,0.310743 0.0163,0.457937 0.0327,0.13084 0.17991,0.310744 0.14719,0.179903 0.42522,0.310743 0.27804,0.130839 1.06307,0.425227 0.80139,0.278033 1.40652,0.932229 0.60514,0.637841 0.60514,1.749975 v 0.883164 q 0,0.539712 -0.11449,0.948585 -0.0981,0.408872 -0.6542,1.144843 -0.55606,0.719615 -1.91352,0.719615 -1.40652,0 -2.04436,-0.915874 -0.63784,-0.93223 -0.63784,-1.897169 v -0.392517 h 1.57007 z"
         id="path875" />
    </g>
    <g
       aria-label="PPS"
       id="text2866"
       style="font-size:16.3549px;line-height:9.58289px;font-family:'DIN 1451 Engschrift';-inkscape-font-specification:'DIN 1451 Engschrift, Normal';letter-spacing:0px;word-spacing:0px;stroke-width:0.383316px">
      <path
         d="m 65.410841,-96.739571 v -10.908719 h 2.551365 q 0.474292,0 0.948584,0.19626 0.474292,0.19626 0.785035,0.52336 0.327098,0.31074 0.539712,0.75232 0.228969,0.44158 0.228969,0.85046 v 1.58642 q 0,0.60513 -0.163549,1.07943 -0.163549,0.47429 -0.572422,0.88316 -0.392517,0.39252 -0.86681,0.57242 -0.457937,0.16355 -1.079423,0.16355 h -0.817745 v 4.301339 z m 3.30369,-6.084019 q 0.147194,-0.1472 0.179904,-0.31075 0.04906,-0.16355 0.04906,-0.40887 v -0.19626 -1.42287 q 0,-0.45794 -0.278033,-0.75233 -0.278034,-0.29439 -0.752326,-0.29439 h -0.948584 v 3.69621 h 0.817745 q 0.327098,0 0.523357,-0.0491 0.212614,-0.0654 0.408872,-0.26167 z"
         id="path846" />
      <path
         d="m 71.576621,-96.739571 v -10.908719 h 2.551365 q 0.474292,0 0.948584,0.19626 0.474292,0.19626 0.785035,0.52336 0.327098,0.31074 0.539712,0.75232 0.228968,0.44158 0.228968,0.85046 v 1.58642 q 0,0.60513 -0.163549,1.07943 -0.163549,0.47429 -0.572421,0.88316 -0.392518,0.39252 -0.86681,0.57242 -0.457937,0.16355 -1.079423,0.16355 h -0.817745 v 4.301339 z m 3.30369,-6.084019 q 0.147194,-0.1472 0.179904,-0.31075 0.04906,-0.16355 0.04906,-0.40887 v -0.19626 -1.42287 q 0,-0.45794 -0.278034,-0.75233 -0.278033,-0.29439 -0.752325,-0.29439 h -0.948584 v 3.69621 h 0.817745 q 0.327098,0 0.523356,-0.0491 0.212614,-0.0654 0.408873,-0.26167 z"
         id="path848" />
      <path
         d="m 78.887244,-99.454484 q 0,0.310743 0.01636,0.474292 0.03271,0.147194 0.245323,0.474292 0.228969,0.310743 0.817745,0.310743 0.327098,0 0.605131,-0.130839 0.278034,-0.147194 0.408873,-0.359808 0.130839,-0.228968 0.130839,-0.457937 0.01636,-0.245323 0.01636,-0.327098 v -0.768681 q 0,-0.3271 -0.03271,-0.49065 -0.01636,-0.16355 -0.196259,-0.34345 -0.163549,-0.19626 -0.490647,-0.34345 -0.310743,-0.16355 -1.112133,-0.45794 -0.785035,-0.29439 -1.324747,-0.91587 -0.539711,-0.63784 -0.539711,-1.73362 v -0.49065 q 0,-1.11213 0.73597,-1.91352 0.752325,-0.81775 1.864459,-0.81775 1.128488,0 1.880813,0.80139 0.768681,0.78504 0.768681,1.92988 v 0.49065 h -1.553716 v -0.49065 q 0,-0.22897 -0.03271,-0.39252 -0.03271,-0.16355 -0.261678,-0.47429 -0.228969,-0.31074 -0.76868,-0.31074 -0.474293,0 -0.785036,0.34345 -0.294388,0.3271 -0.294388,0.8341 v 0.49065 q 0,0.31074 0.01636,0.45793 0.03271,0.13084 0.179904,0.31075 0.147194,0.1799 0.425227,0.31074 0.278034,0.13084 1.063069,0.42523 0.80139,0.27803 1.406521,0.93223 0.605132,0.63784 0.605132,1.74997 v 0.883166 q 0,0.539712 -0.114485,0.948584 -0.09813,0.408873 -0.654196,1.144843 -0.556066,0.719616 -1.913523,0.719616 -1.406522,0 -2.044363,-0.915875 -0.637841,-0.932229 -0.637841,-1.897168 v -0.392518 h 1.570071 z"
         id="path850" />
    </g>
    <g
       aria-label="BDE"
       id="text2866-8"
       style="font-size:16.3549px;line-height:9.58289px;font-family:'DIN 1451 Engschrift';-inkscape-font-specification:'DIN 1451 Engschrift, Normal';letter-spacing:0px;word-spacing:0px;stroke-width:0.383316px">
      <path
         d="m -18.884432,46.15253 q 0.474292,0 0.948584,0.212614 0.474292,0.212614 0.997649,0.73597 0.523357,0.523357 0.523357,1.619136 v 0.8341 q 0,1.242972 -0.981294,1.766329 0.981294,0.572421 0.981294,1.815394 v 1.275682 q 0,1.144843 -0.735971,1.897168 -0.73597,0.752326 -1.897168,0.752326 h -2.404171 V 46.15253 Z m 0.932229,3.238271 V 48.72025 q 0,-0.507002 -0.294388,-0.801391 -0.294388,-0.294388 -0.785036,-0.294388 h -0.883164 v 3.009302 h 0.932229 q 0.539712,0 0.785035,-0.327098 0.245324,-0.343453 0.245324,-0.915874 z m 0,5.020954 v -1.275682 q 0,-0.523357 -0.294388,-0.817745 -0.278034,-0.310743 -0.785036,-0.310743 h -0.883164 v 3.499948 h 0.899519 q 0.474293,0 0.768681,-0.310743 0.294388,-0.310743 0.294388,-0.785035 z"
         id="path896" />
      <path
         d="m -12.391539,46.15253 q 1.046714,0 1.799039,0.752326 0.7686805,0.73597 0.7686805,1.782684 v 5.67515 q 0,1.177553 -0.7359705,1.946233 -0.719616,0.752326 -1.880814,0.752326 h -2.420525 V 46.15253 Z m 1.030359,8.21016 v -5.67515 q 0,-0.457937 -0.343453,-0.752326 -0.327098,-0.310743 -0.80139,-0.310743 h -0.817745 v 7.981192 h 0.76868 q 1.193908,0 1.193908,-1.242973 z"
         id="path898" />
      <path
         d="m -3.5762682,55.491178 v 1.570071 H -8.2374148 V 46.15253 h 4.6611466 v 1.439231 h -3.123786 v 3.221916 h 2.7476233 v 1.471941 h -2.7476233 v 3.20556 z"
         id="path900" />
    </g>
    <circle
       style="color:#000000;overflow:visible;opacity:0.32053743;fill:#ffffff;fill-opacity:1;stroke:#05aad4;stroke-width:20.7586;stroke-linecap:round;stroke-linejoin:round;stroke-miterlimit:4;stroke-dasharray:none;stroke-dashoffset:0;stroke-opacity:1;paint-order:markers fill stroke;stop-color:#000000"
       id="path55361-3-6"
       cx="74.207413"
       cy="24.55938"
       r="87.326576" />
    <path
       fill="currentColor"
       d="m -8.368398,83.248519 h -5.959001 c -0.234104,0 -0.425643,0.19154 -0.425643,0.425644 v 0.851286 c 0,0.234103 0.191539,0.425643 0.425643,0.425643 h 5.959001 c 0.234103,0 0.425643,-0.19154 0.425643,-0.425643 v -0.851286 c 0,-0.234104 -0.19154,-0.425644 -0.425643,-0.425644 z m 0,5.107716 h -5.959001 c -0.234104,0 -0.425643,0.191539 -0.425643,0.425643 v 0.851286 c 0,0.234103 0.191539,0.425643 0.425643,0.425643 h 5.959001 c 0.234103,0 0.425643,-0.19154 0.425643,-0.425643 v -0.851286 c 0,-0.234104 -0.19154,-0.425643 -0.425643,-0.425643 z m -8.938501,-5.533358 c -0.707631,0 -1.276929,0.569298 -1.276929,1.276929 0,0.707631 0.569298,1.276928 1.276929,1.276928 0.707631,0 1.276929,-0.569297 1.276929,-1.276928 0,-0.707631 -0.569298,-1.276929 -1.276929,-1.276929 z m 0,5.107715 c -0.707631,0 -1.276929,0.569297 -1.276929,1.276929 0,0.707631 0.569298,1.276928 1.276929,1.276928 0.707631,0 1.276929,-0.569297 1.276929,-1.276928 0,-0.707632 -0.569298,-1.276929 -1.276929,-1.276929 z M -5.3888977,73.884376 h -4.2564295 c 0,-1.87815 -1.5269938,-3.405143 -3.4051428,-3.405143 -1.87815,0 -3.405143,1.526993 -3.405143,3.405143 h -4.25643 c -1.409942,0 -2.553857,1.143915 -2.553857,2.553858 v 18.728288 c 0,1.409941 1.143915,2.55386 2.553857,2.55386 h 15.3231453 c 1.4099422,0 2.5538572,-1.143919 2.5538572,-2.55386 V 76.438234 c 0,-1.409943 -1.143915,-2.553858 -2.5538572,-2.553858 z M -13.05047,73.03309 c 0.468206,0 0.851286,0.383079 0.851286,0.851286 0,0.468206 -0.38308,0.851286 -0.851286,0.851286 -0.468207,0 -0.851286,-0.38308 -0.851286,-0.851286 0,-0.468207 0.383079,-0.851286 0.851286,-0.851286 z m 7.6615723,21.707789 c 0,0.234102 -0.1915392,0.425643 -0.425643,0.425643 H -20.2864 c -0.234104,0 -0.425643,-0.191541 -0.425643,-0.425643 V 76.863876 c 0,-0.234104 0.191539,-0.425642 0.425643,-0.425642 h 2.128215 v 1.702571 c 0,0.468207 0.383078,0.851285 0.851286,0.851285 h 8.512858 c 0.4682067,0 0.851286,-0.383078 0.851286,-0.851285 v -1.702571 h 2.1282143 c 0.2341038,0 0.425643,0.191538 0.425643,0.425642 z"
       class=""
       id="path995"
       style="fill:#ffffff;stroke-width:0.0532054" />
    <path
       fill="currentColor"
       d="m 174.81325,84.501947 h -3.65121 v 4.381458 l -1.46049,-0.972136 -1.46049,0.972136 v -4.381458 h -3.65121 c -0.40163,0 -0.73024,0.328609 -0.73024,0.730242 v 8.762918 c 0,0.401634 0.32861,0.730243 0.73024,0.730243 h 10.2234 c 0.40164,0 0.73025,-0.328609 0.73025,-0.730243 v -8.762918 c 0,-0.401633 -0.32861,-0.730242 -0.73025,-0.730242 z m -17.52583,-2.920974 h 10.22341 c 0.40162,0 0.73023,-0.328609 0.73023,-0.730242 v -8.762918 c 0,-0.401634 -0.32861,-0.730243 -0.73023,-0.730243 h -3.65122 v 4.381459 l -1.46049,-0.972137 -1.46048,0.972137 V 71.35757 h -3.65122 c -0.40163,0 -0.73024,0.328609 -0.73024,0.730243 v 8.762918 c 0,0.401633 0.32861,0.730242 0.73024,0.730242 z m 2.92097,2.920974 h -3.65121 v 4.381458 l -1.46049,-0.972136 -1.46048,0.972136 v -4.381458 h -3.65122 c -0.40164,0 -0.73025,0.328609 -0.73025,0.730242 v 8.762918 c 0,0.401634 0.32861,0.730243 0.73025,0.730243 h 10.2234 c 0.40164,0 0.73025,-0.328609 0.73025,-0.730243 v -8.762918 c 0,-0.401633 -0.32861,-0.730242 -0.73025,-0.730242 z"
       id="path1013"
       style="fill:#ffffff;stroke-width:0.0456402" />
    <path
       fill="currentColor"
       d="m 85.019194,-78.725236 v 2.160503 c 0,1.903969 -4.741867,3.456834 -10.586531,3.456834 -5.844663,0 -10.586531,-1.552865 -10.586531,-3.456834 v -2.160503 c 0,-1.903968 4.741868,-3.456832 10.586531,-3.456832 5.844664,0 10.586531,1.552864 10.586531,3.456832 z m 0,4.861156 v 4.861155 c 0,1.903969 -4.741867,3.456834 -10.586531,3.456834 -5.844663,0 -10.586531,-1.552865 -10.586531,-3.456834 v -4.861155 c 2.27445,1.566381 6.437367,2.295576 10.586531,2.295576 4.149164,0 8.312033,-0.729195 10.586531,-2.295576 z m 0,7.561808 v 4.861156 c 0,1.903967 -4.741867,3.456832 -10.586531,3.456832 -5.844663,0 -10.586531,-1.552865 -10.586531,-3.456832 v -4.861156 c 2.27445,1.566382 6.437367,2.295575 10.586531,2.295575 4.149164,0 8.312033,-0.729193 10.586531,-2.295575 z"
       id="path1004"
       style="fill:#ffffff;stroke-width:0.0472613" />
    <g
       id="g1671"
       style="display:inline"
       transform="matrix(0.34945441,0,0,0.34945441,-178.16228,43.801657)">
      <text
         id="text5844-1"
         y="38.904903"
         x="612.76068"
         style="font-style:normal;font-variant:normal;font-weight:normal;font-stretch:normal;font-size:94.1564px;line-height:73.5615px;font-family:Bahnschrift;-inkscape-font-specification:'Bahnschrift, Normal';font-variant-ligatures:normal;font-variant-caps:normal;font-variant-numeric:normal;font-feature-settings:normal;text-align:start;letter-spacing:0px;word-spacing:0px;writing-mode:lr-tb;text-anchor:start;display:inline;fill:#00aad4;fill-opacity:1;stroke:none;stroke-width:2.94246px;stroke-linecap:butt;stroke-linejoin:miter;stroke-opacity:1"
         xml:space="preserve"
         transform="translate(53.146049,-74.154944)"><tspan
           dx="0"
           style="font-style:normal;font-variant:normal;font-weight:normal;font-stretch:normal;font-size:94.1564px;font-family:Bahnschrift;-inkscape-font-specification:'Bahnschrift, Normal';font-variant-ligatures:normal;font-variant-caps:normal;font-variant-numeric:normal;font-feature-settings:normal;text-align:start;letter-spacing:-5.04317px;writing-mode:lr-tb;text-anchor:start;fill:#00aad4;fill-opacity:1;stroke-width:2.94246px"
           y="38.904903"
           x="612.76068"
           id="tspan5842-8"
           sodipodi:role="line">ZOPE </tspan></text>
      <path
         id="path902-7"
         style="color:#000000;display:inline;overflow:visible;fill:#00aad4;fill-opacity:1;stroke:none;stroke-width:0.970543;stroke-linecap:round;stroke-linejoin:round;stroke-miterlimit:4;stroke-dasharray:none;stroke-opacity:1;stop-color:#000000"
         d="m 603.49397,-116.97803 c -13.62625,-1.2e-4 -26.62557,5.72601 -35.82309,15.78002 h 61.43646 c 4.86905,6e-4 7.37391,5.826841 4.02425,9.360795 l -36.09191,45.092161 h 49.89497 c 3.36076,-6.733501 5.11024,-14.156072 5.11024,-21.681681 0,-26.813983 -21.73691,-48.551105 -48.55092,-48.551295 z m -43.44101,26.869622 c -3.36078,6.7335 -5.11015,14.156062 -5.11015,21.681673 0,26.814141 21.73699,48.551307 48.55116,48.55129 13.62627,-1.41e-4 26.62531,-5.726437 35.82265,-15.780507 h -61.85663 c -4.86754,-0.0026 -7.37049,-5.82703 -4.02233,-9.360297 l 37.1186,-45.092159 z"
         sodipodi:nodetypes="scccccsscssccccc" />
    </g>
  </g>
</svg>
