<?xml version="1.0" encoding="UTF-8"?> <!-- Generator: Adobe Illustrator 15.0.0, SVG Export Plug-In . SVG Version: 6.00 Build 0) --> <svg xmlns="http://www.w3.org/2000/svg" xmlns:xlink="http://www.w3.org/1999/xlink" id="Layer_1" x="0px" y="0px" width="429.45px" height="85.89px" viewBox="0 0 429.45 85.89" xml:space="preserve"> <path fill="#535455" d="M419.255,55.075l7.027,4.304c-5.183,6.938-11.946,10.013-19.326,10.013 c-15.196,0-22.836-11.593-22.748-23.102c0-11.505,7.904-23.101,22.661-23.188c12.913-0.088,21.871,9.662,21.871,22.135 c0,1.318-0.088,3.073-0.351,5.094h-34.607c1.054,5.534,5.71,10.541,13.174,10.541C410.91,60.872,415.564,60.169,419.255,55.075 M419.43,42.427c-1.317-6.588-5.709-10.628-12.474-10.805c-7.554,0.089-11.769,4.393-12.998,10.805H419.43z"></path> <polygon fill="#535455" points="360.993,49.014 363.89,57.719 364.242,57.719 366.965,48.926 374.604,23.979 384.796,23.979 369.602,68.864 358.183,68.864 342.898,23.979 353.086,23.979 "></polygon> <path fill="#535455" d="M334.152,55.075l7.026,4.304c-5.181,6.938-11.945,10.013-19.324,10.013 c-15.196,0-22.836-11.593-22.749-23.102c0-11.505,7.905-23.101,22.661-23.188c12.914-0.088,21.871,9.662,21.871,22.135 c0,1.318-0.087,3.073-0.351,5.094h-34.606c1.053,5.534,5.709,10.541,13.174,10.541C325.808,60.872,330.462,60.169,334.152,55.075 M334.327,42.427c-1.317-6.588-5.709-10.628-12.473-10.805c-7.555,0.089-11.769,4.393-12.999,10.805H334.327z"></path> <path fill="#535455" d="M286.445,60.872c7.467,0,12.121-5.007,13.177-10.541h-34.608c-0.262-2.021-0.353-3.775-0.353-5.094 c0-12.474,8.96-22.223,21.871-22.135c14.759,0.087,22.664,11.683,22.664,23.188c0.088,11.509-7.555,23.102-22.751,23.102 c-7.378,0-14.142-3.075-19.323-10.013l7.026-4.304C277.838,60.169,282.494,60.872,286.445,60.872 M299.446,42.427 c-1.23-6.413-5.447-10.716-13.001-10.805c-6.765,0.177-11.154,4.217-12.472,10.805H299.446z"></path> <polygon fill="#535455" points="230.733,48.486 225.989,68.689 213.519,68.689 202.627,23.892 212.376,23.892 217.295,45.94 219.58,55.032 219.931,55.032 222.126,45.94 227.66,24.156 238.2,24.156 243.734,45.94 245.931,55.032 246.28,55.032 248.565,45.94 253.484,23.892 263.235,23.892 252.342,68.689 239.868,68.689 235.125,48.486 233.017,39.13 232.754,39.13 "></polygon> <path fill="#535455" d="M117.348,85.554V25.825c6.236-2.195,12.209-2.723,17.567-2.723c15.021,0,23.365,11.419,23.277,22.925 c0,15.109-14.23,28.195-31.27,21.959v17.567H117.348z M126.922,32.149v27.229c11.067,5.006,21.695-2.373,21.783-13.352 c0.088-6.851-4.743-14.757-13.791-14.757C132.192,31.359,129.469,31.622,126.922,32.149"></path> <path fill="#535455" d="M162.188,85.554V25.825c6.237-2.195,12.21-2.723,17.568-2.723c15.02,0,23.364,11.419,23.276,22.925 c0,15.109-14.229,28.195-31.27,21.959v17.567H162.188z M171.762,32.149v27.229c11.067,5.006,21.695-2.373,21.783-13.352 c0.088-6.851-4.743-14.757-13.79-14.757C177.032,31.359,174.31,31.622,171.762,32.149"></path> <path fill="#535455" d="M91.483,69.396c-12.473,0.1-21.344-10.277-21.344-22.838s10.189-22.75,22.837-23.101 c6.148-0.088,12.736,0.614,18.533,3.513v41.986l-9.474-0.037l-0.04-2.363C100.785,67.175,96.427,69.354,91.483,69.396 M102.024,32.855C90.957,29.254,79.538,34.7,79.538,46.558c0,7.554,4.128,14.141,12.649,14.317c3.776,0,8.747-1.642,9.85-4.838 C102.037,56.037,102.024,34.964,102.024,32.855"></path> <path fill="none" stroke="#535455" stroke-width="3" stroke-miterlimit="10" d="M79.608,0C79.54,17.226,65.82,22.95,57.341,23.091 c-11.154,0.187-22.319,8.201-22.267,23.375c0.051,15.175,12.136,23.319,22.267,23.104c10.132-0.219,20.511-6.606,20.107-18.135"></path> <path fill-rule="evenodd" clip-rule="evenodd" fill="#CDD856" d="M49.44,21.01C38.669,12.083,0.851,0.978,0.851,0.978 s19.965,32.646,30.931,41.734c0.192,0.16,0.408,0.299,0.618,0.444v-4.867c-3.095-3.767-3.195-9.313,0.032-13.207 c3.66-4.414,10.205-5.027,14.62-1.367c4.415,3.659,5.027,10.205,1.369,14.62c-2.472,2.981-6.256,4.22-9.815,3.589v3.315 c4.871,0.488,10.392-0.977,13.231-4.403C56.219,35.548,54.923,25.555,49.44,21.01"></path> </svg> 