<?xml version="1.0" encoding="utf-8"?>
<!-- Generator: Adobe Illustrator 23.0.6, SVG Export Plug-In . SVG Version: 6.00 Build 0)  -->
<svg version="1.1" id="Ebene_1" xmlns="http://www.w3.org/2000/svg" xmlns:xlink="http://www.w3.org/1999/xlink" x="0px" y="0px"
	 viewBox="0 0 288.9 255.2" style="enable-background:new 0 0 288.9 255.2;" xml:space="preserve">
<style type="text/css">
	.st0{fill:#1C65A1;}
</style>
<path class="st0" d="M19.9,135.1C53.6,104,87,72.7,120.5,41.4c7.9-7.4,15.9-14.6,24.1-22C187,58.9,227.9,97.2,269,135.1h19.9
	c-16.5-16.2-33.6-31.9-50.5-47.6c-31-28.9-62-57.8-93.8-87.4C95.7,45.5,47.6,90,0,135.1H19.9z"/>
<path class="st0" d="M170.5,255.2h86.6c0-41.2,0-80.4,0-119.6h-13.3c0,2,0.1,4.1,0.1,6.1c0,33,0,66.1,0,100c-21,0-40.4,0-61.3,0
	c0-26.3,0-51,0-75.6c-26.5,0-51.6,0-77.9,0c0,26.1,0,50.7,0,75.5c-20.3,0-39.2,0-59,0c0-35.3,0.3-69-0.3-102.7
	c0-1.1-0.2-2.3-0.6-3.4H33c-0.2,0.9-0.4,1.9-0.4,2.8c-0.7,18.8-0.3,37.6-0.3,56.4c0,20.2,0,40.4,0,60.4c30.3,0,58.1,0,87.5,0
	c0-26.1,0-50.7,0-75.8c17.3,0,33,0,50.8,0C170.5,205.5,170.5,230.4,170.5,255.2z"/>
</svg>
