<?xml version="1.0" encoding="UTF-8" standalone="no"?>
<svg
   xmlns:dc="http://purl.org/dc/elements/1.1/"
   xmlns:cc="http://creativecommons.org/ns#"
   xmlns:rdf="http://www.w3.org/1999/02/22-rdf-syntax-ns#"
   xmlns:svg="http://www.w3.org/2000/svg"
   xmlns="http://www.w3.org/2000/svg"
   viewBox="0 0 402.20001 72.662498"
   height="72.662498"
   width="402.20001"
   xml:space="preserve"
   version="1.1"
   id="svg2"><metadata
     id="metadata8"><rdf:RDF><cc:Work
         rdf:about=""><dc:format>image/svg+xml</dc:format><dc:type
           rdf:resource="http://purl.org/dc/dcmitype/StillImage" /></cc:Work></rdf:RDF></metadata><defs
     id="defs6"><clipPath
       id="clipPath20"
       clipPathUnits="userSpaceOnUse"><path
         style="clip-rule:evenodd"
         id="path22"
         d="m 1608.8,571.305 1533.4,0 c 36.12,0 65.4,-29.282 65.4,-65.403 l 0,-430.4997 C 3207.6,39.2813 3178.32,10 3142.2,10 L 75.4023,10 C 39.2773,10 10,39.2813 10,75.4023 l 0,430.4997 c 0,36.121 29.2773,65.403 65.4023,65.403 l 1533.3977,0 z" /></clipPath></defs><g
     transform="matrix(1.25,0,0,-1.25,0,72.6625)"
     id="g10"><g
       transform="scale(0.1,0.1)"
       id="g12"><path
         id="path14"
         style="fill:#033d61;fill-opacity:1;fill-rule:evenodd;stroke:none"
         d="m 1608.8,571.305 1533.4,0 c 36.12,0 65.4,-29.282 65.4,-65.403 l 0,-430.4997 C 3207.6,39.2813 3178.32,10 3142.2,10 L 75.4023,10 C 39.2773,10 10,39.2813 10,75.4023 l 0,430.4997 c 0,36.121 29.2773,65.403 65.4023,65.403 l 1533.3977,0" /><g
         id="g16"><g
           clip-path="url(#clipPath20)"
           id="g18"><path
             id="path24"
             style="fill:#033d61;fill-opacity:1;fill-rule:nonzero;stroke:none"
             d="m 1608.8,571.305 1533.4,0 c 36.12,0 65.4,-29.282 65.4,-65.403 l 0,-430.4997 C 3207.6,39.2813 3178.32,10 3142.2,10 L 75.4023,10 C 39.2773,10 10,39.2813 10,75.4023 l 0,430.4997 c 0,36.121 29.2773,65.403 65.4023,65.403 l 1533.3977,0" /><path
             id="path26"
             style="fill:none;stroke:#ffffff;stroke-width:20;stroke-linecap:butt;stroke-linejoin:miter;stroke-miterlimit:4;stroke-dasharray:none;stroke-opacity:1"
             d="m 1608.8,571.305 1533.4,0 c 36.12,0 65.4,-29.282 65.4,-65.403 l 0,-430.4997 C 3207.6,39.2813 3178.32,10 3142.2,10 L 75.4023,10 C 39.2773,10 10,39.2813 10,75.4023 l 0,430.4997 c 0,36.121 29.2773,65.403 65.4023,65.403 l 1533.3977,0 z" /></g></g><path
         id="path28"
         style="fill:none;stroke:#ffffff;stroke-width:20;stroke-linecap:butt;stroke-linejoin:miter;stroke-miterlimit:4;stroke-dasharray:none;stroke-opacity:1"
         d="m 1608.8,571.305 1533.4,0 c 36.12,0 65.4,-29.282 65.4,-65.403 l 0,-430.4997 C 3207.6,39.2813 3178.32,10 3142.2,10 L 75.4023,10 C 39.2773,10 10,39.2813 10,75.4023 l 0,430.4997 c 0,36.121 29.2773,65.403 65.4023,65.403 l 1533.3977,0 z" /><path
         id="path30"
         style="fill:#ffffff;fill-opacity:1;fill-rule:nonzero;stroke:none"
         d="m 649.324,320.949 c 1.125,53.446 -18,87.766 -86.078,87.766 l -98.457,0 c -49.508,0 -84.949,-13.5 -85.512,-60.762 l 0,-52.883 c -0.562,-65.824 23.067,-86.078 82.141,-86.078 l 93.391,0 c 69.199,0 94.515,27.567 94.515,77.078 l 0,34.879 z M 697.711,157.23 c 0,-86.6402 -75.953,-104.0816 -136.152,-104.0816 l -109.149,0 c -88.887,0 -112.515,48.9536 -112.515,85.5196 l 0,9.566 45.007,0 0,-7.879 c 0,-37.132 38.258,-47.8198 83.266,-47.8198 l 47.258,0 c 95.644,0 133.898,1.1211 133.898,78.7658 l 0,42.758 -1.125,0 c -10.129,-27.008 -29.816,-44.45 -97.332,-44.45 l -99.578,0 c -80.453,0 -120.394,41.071 -120.394,114.77 l 0,47.824 c 0,104.082 75.382,115.895 129.398,115.895 l 102.953,0 c 36.567,0 73.141,-9 88.332,-55.696 l 1.121,0 0,51.196 45.012,0 0,-286.368" /><path
         id="path32"
         style="fill:#ffffff;fill-opacity:1;fill-rule:nonzero;stroke:none"
         d="m 1122.69,328.828 c 0,66.949 -39.38,79.887 -95.64,79.887 l -98.456,0 c -56.258,0 -95.645,-12.938 -95.645,-79.887 l 0,-57.387 c 0,-66.949 39.387,-79.886 95.645,-79.886 l 98.456,0 c 56.26,0 95.64,12.937 95.64,79.886 l 0,57.387 z m -338.124,2.813 c 0,94.515 66.95,116.457 158.653,116.457 l 69.201,0 c 91.7,0 158.65,-21.942 158.65,-116.457 l 0,-63.012 c 0,-94.516 -66.95,-116.461 -158.65,-116.461 l -69.201,0 c -91.703,0 -158.653,21.945 -158.653,116.461 l 0,63.012" /><path
         id="path34"
         style="fill:#ffffff;fill-opacity:1;fill-rule:nonzero;stroke:none"
         d="m 1261.08,332.203 c 0,104.082 73.14,115.895 144.03,115.895 l 81.01,0 c 90.02,0 125.46,-36.571 125.46,-97.332 l 0,-7.875 -45.01,0 0,6.754 c 0,47.816 -31.5,59.07 -79.89,59.07 l -88.89,0 c -45.57,0 -88.33,-6.75 -88.33,-78.203 l 0,-60.196 c 0,-64.14 39.39,-78.761 97.9,-78.761 l 81.58,0 c 45,0 82.7,13.5 82.7,60.191 l 0,9.567 45.01,0 0,-8.438 c 0,-72.578 -36.01,-100.707 -126.03,-100.707 l -109.14,0 c -43.32,0 -120.4,11.816 -120.4,115.898 l 0,64.137" /><path
         id="path36"
         style="fill:#ffffff;fill-opacity:1;fill-rule:nonzero;stroke:none"
         d="m 2018.34,350.203 c 0,29.254 -21.94,58.512 -100.7,58.512 l -70.89,0 c -76.52,0 -94.52,-12.375 -99.03,-77.641 l 270.62,0 0,19.129 z m -318.99,-18 c 0,104.082 72.01,115.895 140.64,115.895 l 77.65,0 c 86.64,0 149.08,-21.942 149.08,-124.332 l 0,-32.071 -319,0 0,-18.004 c 0,-65.261 31.52,-82.136 115.9,-82.136 l 66.39,0 c 60.76,0 85.52,7.875 88.33,51.758 l 48.38,0 0,-5.625 c 0,-65.829 -54.57,-85.52 -144.58,-85.52 l -87.77,0 c -63.01,0 -135.02,11.816 -135.02,117.582 l 0,62.453" /><path
         id="path38"
         style="fill:#ffffff;fill-opacity:1;fill-rule:nonzero;stroke:none"
         d="m 2482.48,326.578 c 0,55.699 -18,82.137 -86.07,82.137 l -96.2,0 c -63.58,0 -87.78,-33.192 -87.78,-82.703 l 0,-54.571 c 0,-68.636 42.77,-79.886 93.96,-79.886 l 86.08,0 c 56.26,0 90.01,12.375 90.01,78.761 l 0,56.262 z m -318.43,117.02 45.01,0 0,-45.571 1.13,0 c 14.06,34.879 53.44,50.071 96.2,50.071 l 91.71,0 c 68.63,0 132.77,-21.942 132.77,-120.957 l 0,-50.637 c 0,-92.828 -41.08,-124.336 -140.66,-124.336 l -92.26,0 c -51.19,0 -74.26,12.941 -84.39,42.758 l -1.13,0 0,-138.3987 -48.38,0 0,387.0707" /><path
         id="path40"
         style="fill:#ffffff;fill-opacity:1;fill-rule:nonzero;stroke:none"
         d="m 2656.32,404.215 -63.01,0 0,39.383 63.01,0 0,68.074 48.39,0 0,-68.074 191.84,0 0,-39.383 -191.84,0 0,-142.902 c 0,-53.446 18.56,-69.758 71.44,-69.758 l 15.2,0 c 64.13,0 74.26,13.5 74.26,73.699 l 0,21.379 39.38,0 0,-31.504 c 0,-57.391 -5.62,-102.961 -110.27,-102.961 l -26.45,0 c -90.57,0 -111.95,43.883 -111.95,90.582 l 0,161.465" /></g></g></svg>