<?xml version="1.0" encoding="UTF-8" standalone="no"?>
<!-- Generator: Adobe Illustrator 21.1.0, SVG Export Plug-In . SVG Version: 6.00 Build 0)  -->

<svg
   xmlns:dc="http://purl.org/dc/elements/1.1/"
   xmlns:cc="http://creativecommons.org/ns#"
   xmlns:rdf="http://www.w3.org/1999/02/22-rdf-syntax-ns#"
   xmlns:svg="http://www.w3.org/2000/svg"
   xmlns="http://www.w3.org/2000/svg"
   xmlns:xlink="http://www.w3.org/1999/xlink"
   xmlns:sodipodi="http://sodipodi.sourceforge.net/DTD/sodipodi-0.dtd"
   xmlns:inkscape="http://www.inkscape.org/namespaces/inkscape"
   version="1.1"
   id="ugly-logo"
   x="0px"
   y="0px"
   viewBox="0 0 484 136"
   xml:space="preserve"
   sodipodi:docname="Froneri_.svg"
   width="484"
   height="136"
   inkscape:version="0.92.3 (2405546, 2018-03-11)"><metadata
   id="metadata146"><rdf:RDF><cc:Work
       rdf:about=""><dc:format>image/svg+xml</dc:format><dc:type
         rdf:resource="http://purl.org/dc/dcmitype/StillImage" /><dc:title></dc:title></cc:Work></rdf:RDF></metadata><defs
   id="defs144" /><sodipodi:namedview
   pagecolor="#ffffff"
   bordercolor="#666666"
   borderopacity="1"
   objecttolerance="10"
   gridtolerance="10"
   guidetolerance="10"
   inkscape:pageopacity="0"
   inkscape:pageshadow="2"
   inkscape:window-width="1366"
   inkscape:window-height="745"
   id="namedview142"
   showgrid="false"
   inkscape:zoom="0.99300699"
   inkscape:cx="331.47848"
   inkscape:cy="10.882651"
   inkscape:window-x="-8"
   inkscape:window-y="-8"
   inkscape:window-maximized="1"
   inkscape:current-layer="ugly-logo" />
<style
   type="text/css"
   id="style2">
	.st0{clip-path:url(#SVGID_2_);fill:#EE3124;}
	.st1{clip-path:url(#SVGID_2_);fill:#231F20;}
	.st2{clip-path:url(#SVGID_2_);fill:#FFFFFF;}
	.st3{fill:#FFFFFF;}
	.st4{clip-path:url(#SVGID_4_);}
	.st5{fill:#8B0304;}
	.st6{fill:#231F20;}
	.st7{clip-path:url(#SVGID_10_);fill:#231F20;}
	.st8{fill:#00B2D2;}
</style>

<g
   id="frisco"
   transform="translate(0,1)">
	<defs
   id="defs70">
		<path
   id="SVGID_7_"
   d="m 214,104.2 c -1,-4.3 -4.1,-6.6 -5.5,-7.4 -1.2,-0.7 -5.7,-3.4 -17.7,-3.4 -12.3,0 -16.5,2.8 -17.7,3.4 -1.4,0.8 -4.4,3.1 -5.4,7.4 -1.2,5.2 -1.2,13.1 2.9,19.1 4.1,6.2 12.5,8.6 20.3,8.7 7.5,0 16.1,-2.5 20.3,-8.7 3.9,-5.8 4.1,-13.6 2.8,-19.1 z m 0.7,16.6 v 0 c 0.1,0 0.2,-0.1 0.2,-0.2 0,-0.2 -0.2,-0.2 -0.4,-0.2 h -0.3 v 0.9 h 0.1 v -0.4 h 0.1 c 0.2,-0.1 0.2,-0.1 0.3,-0.1 0,0.1 0,0.2 0,0.3 0,0.1 0,0.1 0,0.2 h 0.2 c 0,-0.1 0,-0.2 -0.1,-0.3 0.1,-0.1 0.1,-0.2 -0.1,-0.2 z m -0.1,-0.1 h -0.2 v -0.2 h 0.2 c 0.1,0 0.2,0 0.2,0.1 -0.1,0 -0.1,0.1 -0.2,0.1 z m 0,-0.6 c -0.4,0 -0.8,0.3 -0.8,0.7 0,0.4 0.4,0.7 0.8,0.7 0.4,0 0.8,-0.3 0.8,-0.7 0,-0.4 -0.4,-0.7 -0.8,-0.7 z m 0,1.3 c -0.4,0 -0.7,-0.3 -0.7,-0.6 0,-0.3 0.3,-0.6 0.7,-0.6 0.4,0 0.7,0.3 0.7,0.6 -0.1,0.3 -0.4,0.6 -0.7,0.6 z"
   inkscape:connector-curvature="0" />
	</defs>
	<clipPath
   id="SVGID_8_">
		<use
   xlink:href="#SVGID_7_"
   style="overflow:visible"
   id="use72"
   x="0"
   y="0"
   width="100%"
   height="100%" />
	</clipPath>
	<g
   clip-path="url(#SVGID_8_)"
   id="g76"
   transform="translate(-5.8000001,22.400006)">
		
			
	</g>
</g>
<g
   id="moevenpick"
   transform="translate(0,1)">
	
	
	
	
	
	
	
	
	
	
	
	
	
	
	
	
</g>

<g
   transform="matrix(1.6896968,0,0,1.6607377,0.37929662,-0.1444071)"
   id="g979">
	<g
   id="g977">
		<g
   id="g975">
			<path
   style="fill:#00b2d2"
   inkscape:connector-curvature="0"
   id="path961"
   d="m 5.9,1.8 h 19.4 c 3.1,0 5.6,2.5 5.6,5.6 v 2.4 c 0,3.1 -2.5,5.6 -5.6,5.6 h -8.4 v 5.7 H 25 c 3.1,0 5.6,2.5 5.6,5.6 v 1.7 c 0,3.1 -2.5,5.6 -5.6,5.6 h -8.2 v 14 c 0,3.1 -2.5,5.6 -5.6,5.6 H 5.9 C 2.8,53.6 0.3,51.1 0.3,48 V 7.4 C 0.3,4.3 2.8,1.8 5.9,1.8"
   class="st8" />
			<path
   style="fill:#00b2d2"
   inkscape:connector-curvature="0"
   id="path963"
   d="m 143.3,1.8 h 5.1 c 1.8,0 3.5,0.9 4.5,2.3 l 12.6,17.6 V 7.4 c 0,-3.1 2.5,-5.6 5.6,-5.6 h 5.1 c 3.1,0 5.6,2.5 5.6,5.6 V 48 c 0,3.1 -2.5,5.6 -5.6,5.6 H 171 c -1.8,0 -3.5,-0.9 -4.5,-2.3 L 154,33.8 V 48 c 0,3.1 -2.5,5.6 -5.6,5.6 h -5.1 c -3.1,0 -5.6,-2.5 -5.6,-5.6 V 7.4 c 0,-3.1 2.5,-5.6 5.6,-5.6"
   class="st8" />
			<path
   style="fill:#00b2d2"
   inkscape:connector-curvature="0"
   id="path965"
   d="m 192.8,1.8 h 19.4 c 3.1,0 5.6,2.5 5.6,5.6 v 2.4 c 0,3.1 -2.5,5.6 -5.6,5.6 h -8.4 v 5.7 h 8.2 c 3.1,0 5.6,2.5 5.6,5.6 v 1.7 c 0,3.1 -2.5,5.6 -5.6,5.6 h -8.2 v 6 h 8.9 c 3.1,0 5.6,2.5 5.6,5.6 V 48 c 0,3.1 -2.5,5.6 -5.6,5.6 h -19.9 c -3.1,0 -5.6,-2.5 -5.6,-5.6 V 7.4 c 0,-3.1 2.5,-5.6 5.6,-5.6"
   class="st8" />
			<path
   style="fill:#00b2d2"
   inkscape:connector-curvature="0"
   id="path967"
   d="m 273.7,1.8 h 6.4 c 3.1,0 5.6,2.5 5.6,5.6 V 48 c 0,3.1 -2.5,5.6 -5.6,5.6 h -6.4 c -3.1,0 -5.6,-2.5 -5.6,-5.6 V 7.4 c 0.1,-3.1 2.5,-5.6 5.6,-5.6"
   class="st8" />
			<path
   style="fill:#00b2d2"
   inkscape:connector-curvature="0"
   id="path969"
   d="m 106.3,0.6 c -15,0 -27.2,12.2 -27.2,27.2 0,15 12.2,27.2 27.2,27.2 15,0 27.2,-12.2 27.2,-27.2 0,-15.1 -12.2,-27.2 -27.2,-27.2 m 0,38 c -6,0 -10.9,-4.9 -10.9,-10.9 0,-6 4.9,-10.9 10.9,-10.9 6,0 10.9,4.9 10.9,10.9 0,6 -4.9,10.9 -10.9,10.9"
   class="st8" />
			<path
   style="fill:#00b2d2"
   inkscape:connector-curvature="0"
   id="path971"
   d="m 256.9,36.6 c 4.4,-3.6 6.9,-9.1 6.9,-15.2 0,-10.3 -7.8,-19.4 -22.9,-19.5 -0.1,0 -0.2,0 -0.2,0 h -12.3 c -3.1,0 -5.6,2.5 -5.6,5.6 V 48 c 0,3.1 2.5,5.6 5.6,5.6 h 5.4 c 3.1,0 5.6,-2.5 5.6,-5.6 v -7.5 l 6.1,10.4 c 1,1.7 2.8,2.7 4.8,2.7 h 8.8 c 3.3,0 5.4,-3.6 3.8,-6.5 z m -15.1,-9.3 h -2.4 V 15.8 h 2.4 c 3.2,0 5.7,2.6 5.7,5.7 0.1,3.2 -2.5,5.8 -5.7,5.8"
   class="st8" />
			<path
   style="fill:#00b2d2"
   inkscape:connector-curvature="0"
   id="path973"
   d="m 135.8,56.8 c -2,-1.9 -5.2,-2.1 -7.3,-0.3 C 114.1,68.2 93.5,67 80.5,54.1 75.7,49.3 70.6,40.8 69.1,36.6 73.5,33 76,27.5 76,21.4 76,11.1 68,1.9 52.9,1.8 H 40.6 C 37.5,1.8 35,4.3 35,7.4 V 48 c 0,3.1 2.5,5.6 5.6,5.6 H 46 c 3.1,0 5.6,-2.5 5.6,-5.6 v -9.1 c 4.7,12.8 13.2,23.4 17,27.1 19.2,19.2 50.2,20.8 71.2,3 2.5,-2.1 2.6,-6 0.2,-8.3 z M 54,27.3 H 51.6 V 15.8 H 54 c 3.2,0 5.7,2.6 5.7,5.7 0,3.2 -2.6,5.8 -5.7,5.8"
   class="st8" />
		</g>
	</g>
</g></svg>