<?xml version="1.0" encoding="utf-8"?>
<!-- Generator: Adobe Illustrator 19.2.1, SVG Export Plug-In . SVG Version: 6.00 Build 0)  -->
<svg version="1.1" id="Layer_1" xmlns="http://www.w3.org/2000/svg" xmlns:xlink="http://www.w3.org/1999/xlink" x="0px" y="0px"
	 viewBox="0 0 343.7 64.8" style="enable-background:new 0 0 343.7 64.8;" xml:space="preserve">
<style type="text/css">
	.st0{clip-path:url(#SVGID_2_);fill:#19255B;}
	.st1{fill:#19255B;}
	.st2{clip-path:url(#SVGID_4_);fill:#19255B;}
	.st3{fill:#0087CC;}
	.st4{clip-path:url(#SVGID_6_);fill:#0087CC;}
	.st5{clip-path:url(#SVGID_8_);fill:#0087CC;}
	.st6{clip-path:url(#SVGID_10_);fill:#19255B;}
</style>
<g>
	<defs>
		<rect id="SVGID_1_" x="15.2" y="13.7" width="313.5" height="33.6"/>
	</defs>
	<clipPath id="SVGID_2_">
		<use xlink:href="#SVGID_1_"  style="overflow:visible;"/>
	</clipPath>
	<path class="st0" d="M44.4,35.3v11.7h-2.3V13.7h8c5.4,0,8,1.7,8,9.3v2.9c0,7.2-2.5,9.4-8,9.4H44.4z M50.2,33.2c4.7,0,5.8-2,5.8-7.3
		v-2.7c0-5.3-0.9-7.5-5.8-7.5h-5.7v17.5H50.2z"/>
	<path class="st0" d="M77.1,40.1c0,4.6-2.3,7-7.5,7c-5.4,0-8-2.5-8-9.4V31c0-6.9,2.5-9.5,8-9.5c5.8,0,7.8,2.9,7.8,9.5v3.7H63.7v2.8
		c0,5.1,1.2,7.6,5.9,7.6c4.6,0,5.5-2.1,5.5-5H77.1z M75.5,32.7V31c0-4.8-0.9-7.8-5.9-7.8c-4.7,0-5.9,2.3-5.9,7.6v1.9H75.5z"/>
	<path class="st0" d="M84.2,21.5l0.1,3c1-2.1,3.6-3.5,6.7-3v2c-3.8-0.6-6.6,1.9-6.6,5.4l0,17.9h-2.2V21.5H84.2z"/>
</g>
<polygon class="st1" points="95.3,13.7 95.3,46.9 97.4,46.9 97.4,30.2 109.4,30.2 109.4,28.1 97.4,28.1 97.4,15.7 110.9,15.7 
	110.9,13.7 "/>
<g>
	<defs>
		<rect id="SVGID_3_" x="15.2" y="13.7" width="313.5" height="33.6"/>
	</defs>
	<clipPath id="SVGID_4_">
		<use xlink:href="#SVGID_3_"  style="overflow:visible;"/>
	</clipPath>
	<path class="st2" d="M128.1,46.9l0-3.4c-1.7,2.8-4,3.6-7.4,3.6c-4.1,0-7-1.9-7-6.7c0-6.2,5.4-7.5,14.2-6.9V30
		c0-4.5-1.5-6.4-5.5-6.4c-3.6,0-5.5,1.1-5.5,5.9h-2.1c0-5.3,2.1-7.8,7.5-7.8c5.1,0,7.5,2.4,7.5,8.3v17H128.1z M127.8,35.7
		c-8.2-0.8-12.1,0.4-12.1,4.8c0,3.2,1.9,4.6,5.6,4.6c4.8,0,6.4-3.6,6.4-6.2V35.7z"/>
	<path class="st2" d="M150.6,39.4c0,5.3-2.6,7.8-7.8,7.8c-5.4,0-8-2.6-8-9.5V31c0-7,2.7-9.4,8.1-9.4c5.5,0,7.4,2.5,7.6,7.2h-2
		c-0.2-3.1-1.2-5.2-5.6-5.2c-4.6,0-6,2.1-6,7.4v6.5c0,5.2,1,7.5,5.8,7.5c4.8,0,5.7-2.1,5.8-5.7H150.6z"/>
	<path class="st2" d="M155.3,15.9l2.2-0.3v5.9h5.2v2h-5.2v16.3c0,4.7,1.4,5.6,5.5,5.3V47c-5.8,0.6-7.7-1.6-7.7-7.2V15.9z"/>
</g>
<rect x="170.4" y="22.8" class="st3" width="4.3" height="24.1"/>
<polygon class="st3" points="190,22.8 190,28.5 190.5,38.7 183.4,22.8 179.1,22.8 179.1,46.9 183.4,46.9 183.4,40.7 183,31.6 
	190.1,46.9 194.3,46.9 194.3,22.8 "/>
<polygon class="st3" points="209.5,22.8 209.5,28.5 210,38.7 202.9,22.8 198.6,22.8 198.6,46.9 202.9,46.9 202.9,40.7 202.5,31.6 
	209.6,46.9 213.8,46.9 213.8,22.8 "/>
<g>
	<defs>
		<rect id="SVGID_5_" x="15.2" y="13.7" width="313.5" height="33.6"/>
	</defs>
	<clipPath id="SVGID_6_">
		<use xlink:href="#SVGID_5_"  style="overflow:visible;"/>
	</clipPath>
	<path class="st4" d="M217.8,39.9V29.7c0-5.1,2.2-7.2,8-7.2c5.8,0,8.2,2.1,8.2,7.2v10.2c0,5-2.5,7.2-8.2,7.2
		C220.1,47.1,217.8,44.9,217.8,39.9 M229.7,39.7v-9.8c0-2.2-0.6-3.6-3.9-3.6c-3.1,0-3.7,1.4-3.7,3.6v9.8c0,2.3,0.6,3.6,3.7,3.6
		C228.9,43.3,229.7,42,229.7,39.7"/>
</g>
<polygon class="st3" points="248.5,22.8 246.4,30.1 244.2,41.4 242,30.2 239.9,22.8 235.4,22.8 242,46.9 246.5,46.9 252.9,22.8 "/>
<path class="st3" d="M260.8,29.5l2,8.9h-4L260.8,29.5z M258.7,22.8L252,46.9h4.4l1.3-4.3h6.2l1.2,4.3h4.4L263,22.8H258.7z"/>
<polygon class="st3" points="268,22.9 268,26.7 273,26.7 273,46.9 277.3,46.9 277.3,26.7 282.3,26.7 282.3,22.9 "/>
<rect x="284.7" y="22.8" class="st3" width="4.3" height="24.1"/>
<g>
	<defs>
		<rect id="SVGID_7_" x="15.2" y="13.7" width="313.5" height="33.6"/>
	</defs>
	<clipPath id="SVGID_8_">
		<use xlink:href="#SVGID_7_"  style="overflow:visible;"/>
	</clipPath>
	<path class="st5" d="M293.1,39.9V29.7c0-5.1,2.2-7.2,8-7.2c5.8,0,8.2,2.1,8.2,7.2v10.2c0,5-2.5,7.2-8.2,7.2
		C295.4,47.1,293.1,44.9,293.1,39.9 M305.1,39.7v-9.8c0-2.2-0.6-3.6-3.9-3.6c-3.1,0-3.7,1.4-3.7,3.6v9.8c0,2.3,0.6,3.6,3.7,3.6
		C304.3,43.3,305.1,42,305.1,39.7"/>
</g>
<polygon class="st3" points="324.4,22.8 324.4,28.5 324.8,38.7 317.8,22.8 313.5,22.8 313.5,46.9 317.8,46.9 317.8,40.7 317.4,31.6 
	324.5,46.9 328.7,46.9 328.7,22.8 "/>
<g>
	<defs>
		<rect id="SVGID_9_" x="15.2" y="13.7" width="313.5" height="33.6"/>
	</defs>
	<clipPath id="SVGID_10_">
		<use xlink:href="#SVGID_9_"  style="overflow:visible;"/>
	</clipPath>
	<path class="st6" d="M23.7,29.3c0,1-0.8,1.8-1.8,1.8H17c-1,0-1.8-0.8-1.8-1.8v-4.9c0-1,0.8-1.8,1.8-1.8h4.9c1,0,1.8,0.8,1.8,1.8
		V29.3z"/>
	<path class="st6" d="M35.8,29.3c0,1-0.8,1.8-1.8,1.8H29c-1,0-1.8-0.8-1.8-1.8v-4.9c0-1,0.8-1.8,1.8-1.8h4.9c1,0,1.8,0.8,1.8,1.8
		V29.3z"/>
	<path class="st6" d="M23.7,45c0,1-0.8,1.8-1.8,1.8H17c-1,0-1.8-0.8-1.8-1.8V40c0-1,0.8-1.8,1.8-1.8h4.9c1,0,1.8,0.8,1.8,1.8V45z"/>
	<path class="st6" d="M35.8,45c0,1-0.8,1.8-1.8,1.8H29c-1,0-1.8-0.8-1.8-1.8V40c0-1,0.8-1.8,1.8-1.8h4.9c1,0,1.8,0.8,1.8,1.8V45z"/>
</g>
</svg>
