<?xml version="1.0" encoding="UTF-8" standalone="no"?>
<svg
   width="740"
   height="555"
   version="1.1"
   viewBox="0 0 195.79167 146.84467"
   id="svg6"
   sodipodi:docname="grafik-community.svg"
   inkscape:version="1.1 (c68e22c387, 2021-05-23)"
   xmlns:inkscape="http://www.inkscape.org/namespaces/inkscape"
   xmlns:sodipodi="http://sodipodi.sourceforge.net/DTD/sodipodi-0.dtd"
   xmlns="http://www.w3.org/2000/svg"
   xmlns:svg="http://www.w3.org/2000/svg">
  <defs
     id="defs10" />
  <sodipodi:namedview
     id="namedview8"
     pagecolor="#ffffff"
     bordercolor="#666666"
     borderopacity="1.0"
     inkscape:pageshadow="2"
     inkscape:pageopacity="0.0"
     inkscape:pagecheckerboard="0"
     showgrid="false"
     fit-margin-top="0"
     fit-margin-left="0"
     fit-margin-right="0"
     fit-margin-bottom="0"
     inkscape:zoom="1.357645"
     inkscape:cx="278.79158"
     inkscape:cy="278.4233"
     inkscape:current-layer="svg6" />
  <g
     transform="matrix(0.33715846,0,0,0.33715846,-144.98853,-60.098908)"
     id="g16"
     style="fill:#00aad4;fill-opacity:1">
    <path
       d="m 549.72,347.55 c -13.617,0.004 -26.606,5.7256 -35.8,15.77 h 62.217 c 4.9032,0 7.3972,5.894 3.9842,9.4144 l -38.386,45.047 h 51.44 c 3.3604,-6.7331 5.1097,-14.155 5.1098,-21.68 0,-26.814 -21.737,-48.551 -48.551,-48.551 z m -43.429,26.872 c -3.3599,6.7329 -5.1088,14.155 -5.1087,21.679 0,26.814 21.737,48.551 48.551,48.551 13.622,-1.8e-4 26.617,-5.7228 35.814,-15.771 h -62.217 c -4.9032,0 -7.3972,-5.894 -3.9843,-9.4144 l 38.386,-45.045 z"
       color="#000000"
       stop-color="#000000"
       style="fill:#00aad4;fill-opacity:1;paint-order:markers stroke fill"
       id="path2" />
    <g
       transform="translate(-53.756,464.53)"
       id="g14"
       style="fill:#00aad4;fill-opacity:1">
      <g
         transform="translate(53.146,-74.155)"
         stroke-width="2.9425px"
         style="font-variant-ligatures:normal;font-variant-caps:normal;font-variant-numeric:normal;font-feature-settings:normal;fill:#00aad4;fill-opacity:1"
         aria-label="ZOPE "
         id="g12">
        <path
           d="m 658.92,-19.851 -29.102,49.837 h 30.022 v 8.9191 h -41.561 v -8.0916 l 29.332,-49.837 h -28.504 v -8.9191 h 39.814 z"
           style="font-variant-ligatures:normal;font-variant-caps:normal;font-variant-numeric:normal;font-feature-settings:normal;fill:#00aad4;fill-opacity:1"
           id="path4" />
        <path
           d="m 688.4,39.595 q -6.9882,0 -12.321,-3.0343 -5.3331,-3.0803 -8.2755,-8.6433 -2.8964,-5.6089 -2.8964,-12.965 v -18.942 q 0,-7.356 2.8964,-12.919 2.9424,-5.6089 8.2755,-8.6433 5.3331,-3.0803 12.321,-3.0803 6.9879,0 12.321,3.0803 5.3331,3.0343 8.2295,8.6433 2.9424,5.563 2.9424,12.919 v 18.942 q 0,7.356 -2.9424,12.965 -2.8964,5.563 -8.2295,8.6433 -5.3331,3.0343 -12.321,3.0343 z m 0,-9.2409 q 4.1377,0 7.264,-1.839 3.1723,-1.885 4.8733,-5.2871 1.747,-3.4481 1.747,-7.9536 v -19.585 q 0,-4.5055 -1.747,-7.9077 -1.7011,-3.4481 -4.8733,-5.2871 -3.1263,-1.885 -7.264,-1.885 -4.1377,0 -7.31,1.885 -3.1263,1.839 -4.8733,5.2871 -1.7011,3.4021 -1.7011,7.9077 v 19.585 q 0,4.5055 1.7011,7.9536 1.747,3.4021 4.8733,5.2871 3.1723,1.839 7.31,1.839 z"
           style="font-variant-ligatures:normal;font-variant-caps:normal;font-variant-numeric:normal;font-feature-settings:normal;fill:#00aad4;fill-opacity:1"
           id="path6" />
        <path
           d="m 725.93,4.056 h 21.378 q 3.0343,0 5.3331,-1.4252 2.2988,-1.4252 3.5401,-4.0458 1.2873,-2.6206 1.2873,-6.0227 0,-3.4481 -1.2873,-6.0687 -1.2413,-2.6206 -3.5401,-4.0458 -2.2987,-1.4712 -5.3331,-1.4712 H 725.93 v -8.9191 h 21.056 q 5.9767,0 10.528,2.5746 4.5515,2.5286 7.0342,7.1721 2.5286,4.6435 2.5286,10.758 0,6.1146 -2.5286,10.758 -2.4826,4.5975 -7.0342,7.1261 -4.5515,2.5286 -10.528,2.5286 H 725.93 Z m -4.8274,-31.998 h 9.3789 v 66.847 h -9.3789 z"
           style="font-variant-ligatures:normal;font-variant-caps:normal;font-variant-numeric:normal;font-feature-settings:normal;fill:#00aad4;fill-opacity:1"
           id="path8" />
        <path
           d="m 773.76,-27.942 h 9.3789 V 38.905 H 773.76 Z m 4.5515,57.928 h 38.389 v 8.9191 h -38.389 z m 0,-28.734 h 33.332 v 8.9191 h -33.332 z m 0,-29.194 h 38.389 v 8.9191 h -38.389 z"
           style="font-variant-ligatures:normal;font-variant-caps:normal;font-variant-numeric:normal;font-feature-settings:normal;fill:#00aad4;fill-opacity:1"
           id="path10" />
      </g>
    </g>
  </g>
  <path
     fill="currentColor"
     d="m 145.24828,70.713882 c 1.95406,0 3.54276,-1.588707 3.54276,-3.542762 0,-1.954054 -1.5887,-3.54276 -3.54276,-3.54276 -1.95405,0 -3.54276,1.588706 -3.54276,3.54276 0,1.954055 1.58871,3.542762 3.54276,3.542762 z m 24.79933,0 c 1.95405,0 3.54276,-1.588707 3.54276,-3.542762 0,-1.954054 -1.58871,-3.54276 -3.54276,-3.54276 -1.95406,0 -3.54277,1.588706 -3.54277,3.54276 0,1.954055 1.58871,3.542762 3.54277,3.542762 z m 1.77138,1.77138 h -3.54277 c -0.97424,0 -1.85441,0.393025 -2.49654,1.029614 2.23084,1.223361 3.81401,3.43205 4.15722,6.055907 h 3.65347 c 0.9798,0 1.77137,-0.791585 1.77137,-1.771381 v -1.771379 c 0,-1.954055 -1.5887,-3.542761 -3.54275,-3.542761 z m -14.17105,0 c 3.42652,0 6.19983,-2.773318 6.19983,-6.199832 0,-3.426514 -2.77331,-6.199832 -6.19983,-6.199832 -3.42651,0 -6.19983,2.773318 -6.19983,6.199832 0,3.426514 2.77332,6.199832 6.19983,6.199832 z m 4.25132,1.77138 h -0.45945 c -1.15141,0.553556 -2.43011,0.88569 -3.79187,0.88569 -1.36175,0 -2.63493,-0.332134 -3.79186,-0.88569 h -0.45945 c -3.52062,0 -6.37698,2.856352 -6.37698,6.376969 v 1.594243 c 0,1.466924 1.19016,2.657071 2.65708,2.657071 h 15.94243 c 1.46692,0 2.65706,-1.190147 2.65706,-2.657071 v -1.594243 c 0,-3.520617 -2.85634,-6.376969 -6.37696,-6.376969 z m -12.38305,-0.741766 c -0.64213,-0.636589 -1.5223,-1.029614 -2.49656,-1.029614 h -3.54275 c -1.95406,0 -3.54275,1.588706 -3.54275,3.542761 v 1.771379 c 0,0.979796 0.79157,1.771381 1.77137,1.771381 h 3.64794 c 0.34874,-2.623857 1.93191,-4.832546 4.16275,-6.055907 z"
     id="path2-2"
     style="fill:#00aad4;fill-opacity:1;stroke-width:0.0553556" />
</svg>
