<?xml version="1.0" encoding="UTF-8" standalone="no"?>
<svg
   width="740"
   height="384"
   version="1.1"
   viewBox="0 0 195.79167 101.60064"
   id="svg6"
   sodipodi:docname="grafik-historie.svg"
   inkscape:version="1.1 (c68e22c387, 2021-05-23)"
   xmlns:inkscape="http://www.inkscape.org/namespaces/inkscape"
   xmlns:sodipodi="http://sodipodi.sourceforge.net/DTD/sodipodi-0.dtd"
   xmlns="http://www.w3.org/2000/svg"
   xmlns:svg="http://www.w3.org/2000/svg">
  <defs
     id="defs10" />
  <sodipodi:namedview
     id="namedview8"
     pagecolor="#ffffff"
     bordercolor="#666666"
     borderopacity="1.0"
     inkscape:pageshadow="2"
     inkscape:pageopacity="0.0"
     inkscape:pagecheckerboard="0"
     showgrid="false"
     fit-margin-top="0"
     fit-margin-left="0"
     fit-margin-right="0"
     fit-margin-bottom="0"
     inkscape:zoom="1.357645"
     inkscape:cx="278.79158"
     inkscape:cy="192.61294"
     inkscape:current-layer="svg6" />
  <g
     transform="matrix(0.38666756,0,0,0.38666756,-164.56735,-113.54105)"
     id="g16"
     style="fill:#00aad4;fill-opacity:1">
    <path
       d="m 549.72,347.55 c -13.617,0.004 -26.606,5.7256 -35.8,15.77 h 62.217 c 4.9032,0 7.3972,5.894 3.9842,9.4144 l -38.386,45.047 h 51.44 c 3.3604,-6.7331 5.1097,-14.155 5.1098,-21.68 0,-26.814 -21.737,-48.551 -48.551,-48.551 z m -43.429,26.872 c -3.3599,6.7329 -5.1088,14.155 -5.1087,21.679 0,26.814 21.737,48.551 48.551,48.551 13.622,-1.8e-4 26.617,-5.7228 35.814,-15.771 h -62.217 c -4.9032,0 -7.3972,-5.894 -3.9843,-9.4144 l 38.386,-45.045 z"
       color="#000000"
       stop-color="#000000"
       style="fill:#00aad4;fill-opacity:1;paint-order:markers stroke fill"
       id="path2" />
    <g
       transform="translate(-53.756,464.53)"
       id="g14"
       style="fill:#00aad4;fill-opacity:1">
      <g
         transform="translate(53.146,-74.155)"
         stroke-width="2.9425px"
         style="font-variant-ligatures:normal;font-variant-caps:normal;font-variant-numeric:normal;font-feature-settings:normal;fill:#00aad4;fill-opacity:1"
         aria-label="ZOPE "
         id="g12">
        <path
           d="m 658.92,-19.851 -29.102,49.837 h 30.022 v 8.9191 h -41.561 v -8.0916 l 29.332,-49.837 h -28.504 v -8.9191 h 39.814 z"
           style="font-variant-ligatures:normal;font-variant-caps:normal;font-variant-numeric:normal;font-feature-settings:normal;fill:#00aad4;fill-opacity:1"
           id="path4" />
        <path
           d="m 688.4,39.595 q -6.9882,0 -12.321,-3.0343 -5.3331,-3.0803 -8.2755,-8.6433 -2.8964,-5.6089 -2.8964,-12.965 v -18.942 q 0,-7.356 2.8964,-12.919 2.9424,-5.6089 8.2755,-8.6433 5.3331,-3.0803 12.321,-3.0803 6.9879,0 12.321,3.0803 5.3331,3.0343 8.2295,8.6433 2.9424,5.563 2.9424,12.919 v 18.942 q 0,7.356 -2.9424,12.965 -2.8964,5.563 -8.2295,8.6433 -5.3331,3.0343 -12.321,3.0343 z m 0,-9.2409 q 4.1377,0 7.264,-1.839 3.1723,-1.885 4.8733,-5.2871 1.747,-3.4481 1.747,-7.9536 v -19.585 q 0,-4.5055 -1.747,-7.9077 -1.7011,-3.4481 -4.8733,-5.2871 -3.1263,-1.885 -7.264,-1.885 -4.1377,0 -7.31,1.885 -3.1263,1.839 -4.8733,5.2871 -1.7011,3.4021 -1.7011,7.9077 v 19.585 q 0,4.5055 1.7011,7.9536 1.747,3.4021 4.8733,5.2871 3.1723,1.839 7.31,1.839 z"
           style="font-variant-ligatures:normal;font-variant-caps:normal;font-variant-numeric:normal;font-feature-settings:normal;fill:#00aad4;fill-opacity:1"
           id="path6" />
        <path
           d="m 725.93,4.056 h 21.378 q 3.0343,0 5.3331,-1.4252 2.2988,-1.4252 3.5401,-4.0458 1.2873,-2.6206 1.2873,-6.0227 0,-3.4481 -1.2873,-6.0687 -1.2413,-2.6206 -3.5401,-4.0458 -2.2987,-1.4712 -5.3331,-1.4712 H 725.93 v -8.9191 h 21.056 q 5.9767,0 10.528,2.5746 4.5515,2.5286 7.0342,7.1721 2.5286,4.6435 2.5286,10.758 0,6.1146 -2.5286,10.758 -2.4826,4.5975 -7.0342,7.1261 -4.5515,2.5286 -10.528,2.5286 H 725.93 Z m -4.8274,-31.998 h 9.3789 v 66.847 h -9.3789 z"
           style="font-variant-ligatures:normal;font-variant-caps:normal;font-variant-numeric:normal;font-feature-settings:normal;fill:#00aad4;fill-opacity:1"
           id="path8" />
        <path
           d="m 773.76,-27.942 h 9.3789 V 38.905 H 773.76 Z m 4.5515,57.928 h 38.389 v 8.9191 h -38.389 z m 0,-28.734 h 33.332 v 8.9191 h -33.332 z m 0,-29.194 h 38.389 v 8.9191 h -38.389 z"
           style="font-variant-ligatures:normal;font-variant-caps:normal;font-variant-numeric:normal;font-feature-settings:normal;fill:#00aad4;fill-opacity:1"
           id="path10" />
      </g>
    </g>
  </g>
  <g
     aria-label="1  2  3  4 5..."
     id="text7218"
     style="font-size:13.5037px;line-height:7.91227px;font-family:UnifrakturCook;-inkscape-font-specification:UnifrakturCook;letter-spacing:0px;word-spacing:0px;fill:#00aad4;stroke-width:0.316491px">
    <path
       d="m 94.801534,79.315315 h -1.345095 v -8.123319 l -1.364876,0.837387 v -1.39125 l 1.364876,-0.909917 h 1.345095 z"
       style="font-family:Bahnschrift;-inkscape-font-specification:Bahnschrift"
       id="path33015" />
    <path
       d="m 104.29632,77.856491 4.17866,-5.571553 q 0.36265,-0.478033 0.56045,-0.989033 0.20605,-0.519243 0.20605,-0.964308 v -0.01648 q 0,-0.717049 -0.42034,-1.112662 -0.42034,-0.395613 -1.19508,-0.395613 -0.73353,0 -1.18684,0.436823 -0.45331,0.428581 -0.55221,1.219807 v 0.0082 h -1.73905 v -0.0082 q 0.14836,-1.030243 0.60166,-1.755534 0.46155,-0.733532 1.18684,-1.112662 0.72529,-0.387371 1.67312,-0.387371 1.07145,0 1.82971,0.370887 0.75826,0.362646 1.15387,1.063211 0.39561,0.700565 0.39561,1.689598 v 0.0082 q 0,0.63463 -0.26374,1.326953 -0.26374,0.692323 -0.73353,1.335195 l -3.46986,4.714391 h 4.53307 v 1.598937 h -6.75839 z"
       style="font-size:16.8795px"
       id="path33017" />
    <path
       d="m 124.4166,79.46367 q -1.20662,0 -2.12642,-0.435174 -0.9198,-0.445065 -1.48355,-1.275853 -0.55386,-0.840678 -0.70221,-2.017628 v 0 h 2.05719 v 0 q 0.089,0.613201 0.38572,1.008814 0.29671,0.395613 0.76155,0.59342 0.47474,0.187916 1.10772,0.187916 0.99892,0 1.55278,-0.534078 0.55386,-0.534078 0.55386,-1.50333 v -0.435175 q 0,-1.078046 -0.52419,-1.661576 -0.52418,-0.593419 -1.48355,-0.593419 h -1.0187 v -1.918725 h 1.0187 q 0.84068,0 1.30553,-0.504407 0.46484,-0.504407 0.46484,-1.424208 v -0.445065 q 0,-0.850568 -0.49451,-1.315414 -0.48463,-0.464845 -1.38465,-0.464845 -0.5143,0 -0.9198,0.197806 -0.4055,0.187917 -0.69232,0.59342 -0.27693,0.395614 -0.40551,0.998924 v 0 h -2.0473 v 0 q 0.19781,-1.17695 0.74178,-2.017628 0.55386,-0.840678 1.39454,-1.275853 0.84067,-0.435174 1.92861,-0.435174 1.85938,0 2.87809,0.979143 1.0187,0.979142 1.0187,2.759402 v 0.237368 q 0,1.078046 -0.58353,1.879163 -0.58353,0.801117 -1.65168,1.167059 1.17695,0.257149 1.81982,1.157169 0.65276,0.90002 0.65276,2.294557 v 0.237368 q 0,1.256072 -0.48463,2.146202 -0.48462,0.89013 -1.41431,1.354976 -0.9198,0.464845 -2.22533,0.464845 z"
       style="font-size:20.2554px"
       id="path33019" />
    <path
       d="m 138.67852,74.699808 5.63092,-12.150324 h 2.42314 l -5.49246,12.011858 h 8.22715 v 2.180828 h -10.78875 z m 7.23481,-5.25014 h 2.29621 v 9.877186 h -2.29621 z"
       style="font-size:23.6314px"
       id="path33021" />
    <path
       d="m 164.2995,79.513122 q -1.45058,0 -2.58467,-0.567046 -1.12091,-0.567046 -1.83301,-1.648389 -0.69892,-1.081342 -0.93629,-2.59786 v -0.01319 h 2.69018 v 0.01319 q 0.14505,1.054969 0.84397,1.648389 0.69892,0.580232 1.81982,0.580232 1.29234,0 1.99125,-0.857162 0.71211,-0.870349 0.71211,-2.439615 v -1.608827 q 0,-1.556079 -0.71211,-2.413241 -0.69891,-0.87035 -1.99125,-0.87035 -0.69892,0 -1.34508,0.395614 -0.64617,0.395613 -1.1341,1.107717 h -2.4528 V 60.141258 h 9.77165 v 2.558299 h -7.08148 v 4.312185 q 0.50111,-0.4088 1.12091,-0.632981 0.61979,-0.224181 1.26596,-0.224181 1.66158,0 2.83523,0.68573 1.18684,0.685729 1.79344,2.00444 0.6198,1.318711 0.6198,3.178094 v 1.608827 q 0,1.859382 -0.63298,3.178093 -0.63298,1.318711 -1.8462,2.017628 -1.21321,0.68573 -2.91435,0.68573 z"
       style="font-size:27.0072px"
       id="path33023" />
    <path
       d="m 172.4953,77.904284 h 1.41103 v 1.411031 h -1.41103 z"
       style="font-family:Bahnschrift;-inkscape-font-specification:Bahnschrift"
       id="path33025" />
    <path
       d="m 175.55473,77.904284 h 1.41103 v 1.411031 h -1.41103 z"
       style="font-family:Bahnschrift;-inkscape-font-specification:Bahnschrift"
       id="path33027" />
    <path
       d="m 178.61416,77.904284 h 1.41103 v 1.411031 h -1.41103 z"
       style="font-family:Bahnschrift;-inkscape-font-specification:Bahnschrift"
       id="path33029" />
  </g>
</svg>
